<?xml version="1.0" encoding="UTF-8"?>
<svg id="Calque_1" xmlns="http://www.w3.org/2000/svg" version="1.1" viewBox="0 0 566.9 595.3">
  <!-- Generator: Adobe Illustrator 30.0.0, SVG Export Plug-In . SVG Version: 2.1.1 Build 123)  -->
  <defs>
    <style>
      .st0 {
        fill: #fff;
        isolation: isolate;
      }
    </style>
  </defs>
  <path class="st0" d="M255.5,125.4c-5.6-48.8-49.8-85.8-98.7-83.3-49.5,2.5-89.6,44.7-89.6,94.3s74,115.9,135.3,85.2l-66.8-96.2s119.8,0,119.8,0Z"/>
  <polygon class="st0" points="358.1 403 343.3 422.3 328.1 401 328.1 523.7 248.3 523.7 248.3 553.7 437.9 553.7 437.9 523.7 358.1 523.7 358.1 403"/>
  <path class="st0" d="M397.4,155.3h0Z"/>
  <polygon class="st0" points="397.4 155.3 193 155.3 224.5 200.7 366.4 200.7 397.4 155.3"/>
  <path class="st0" d="M493.1,155.3h0Z"/>
  <polygon class="st0" points="402.9 200.7 461.7 200.7 493.1 155.3 433.9 155.3 402.9 200.7"/>
  <polygon class="st0" points="499.7 58.8 475.1 41.6 397.3 155.3 397.4 155.3 433.8 155.3 499.7 58.8"/>
  <polygon class="st0" points="343.1 371.6 343.2 371.7 440.9 230.7 245.3 230.7 343.1 371.6"/>
</svg>