<?xml version="1.0" encoding="UTF-8"?>
<svg id="Calque_1" xmlns="http://www.w3.org/2000/svg" version="1.1" viewBox="0 0 566.9 595.3">
  <!-- Generator: Adobe Illustrator 30.0.0, SVG Export Plug-In . SVG Version: 2.1.1 Build 123)  -->
  <defs>
    <style>
      .st0 {
        fill: #fff;
        isolation: isolate;
      }
    </style>
  </defs>
  <path class="st0" d="M511.4,245.8c-.1,0-.3-.1-.4-.1-11.5-4-12.7-7.1-7.1-21,9.5-23.7-.6-46.2-23.9-46.6-1.9,0-3.8-.2-5.6-.4-5.9-.7-8.7-4.5-7.9-10.8.5-4.1,2-8.5,1.6-12.2-.7-6.6-2.6-12.7-4-19-2.3-2.3-4.7-4.7-7.1-7.1-8.9-5.2-19.6-5.6-31.5-3-6.5,1.4-10.2-2.1-11-8.1-.8-6.1-1-12.7-3.3-17.9-6.4-14.5-24.5-18.8-43.5-11.4-1.7.6-3.4,1.4-5.1,2-7.4,2.7-12.5,1-14.6-5.1-1.9-5.7-4-11.4-9.1-14.6-11.1-7-27.2-3-40.9,9.9-12.8,12.1-21,26.2-27.3,41.1-11.8,27.8-16.8,55.4-19.8,82.7-1.6,14.7-2.9,29.4-3,43.8-.1,14.6-10.6,25-25,25.2-26.8.4-54.1,3-82,9.1-22,4.8-44,11.3-65.3,24.5-10.6,6.5-20.1,14.5-27.1,25.2-11.1,17.1-8.2,34.1,6.7,39.7.2.1.5.1.7.2,11.5,4.1,12.6,7.2,7.1,21.1-9.7,24.4,1.1,46.2,23.4,46.5,2,0,4,.2,6,.4,5.9.7,8.7,4.5,7.9,10.8-.5,4-1.5,8-1.7,11.9-1.3,19.9,12.6,32.9,32.9,30.9,2.8-.2,5.7-.8,8.5-1.3,7.8-1.3,11.7,1.4,12.3,8.7.3,3.4.4,7,1,10.3,3.8,19,23.6,26.8,45.8,18.2,1.6-.6,3.1-1.3,4.7-1.9,7.8-3,12.4-1,15.3,5.1,2.5,5.2,4.8,10.9,9.1,14.2,8.8,7,22.6,4.4,35.9-5.2,13.5-9.8,21.8-22.9,28.4-36.9,12.6-26.8,18.4-53.6,21.8-80.2,2.5-19.3,3.5-38.3,5-57.4.7-8.6,4.4-15.5,11.7-19.3,3.7-1.9,8-2.8,11.7-3,27.7-1.2,55.6-3.3,84.2-9.6,21.8-4.8,43.5-11.3,64.5-24.3,10.7-6.7,20.4-14.8,27.3-25.7,10.9-17.2,7.8-34-7.3-39.4h0ZM380.2,263.5c-13.5,13.4-28.4,24-45.3,30.5-7.3,2.8-14.8,5.3-22.1,8.8-18.4,8.8-30.8,23-38.3,41.5-4.8,11.6-9.1,23.4-15.6,34.5-5.4,9.3-13.3,18-20.8,26.5-6.1,6.9-15.1,8.3-20,4-4.8-4.2-4.2-12.3,1.6-19.3,2.5-3,5.3-5.8,7.9-8.7,9.2-10.7,14.3-22.5,18.4-34.9-15.6,4.8-29.6,12.3-42,25-7.1,7.2-16.2,8.3-20.8,3.2-4.8-5.3-2.5-14.2,4.9-21.4,15-14.6,31.6-24.9,49.9-31.5,8.4-3,17-6.4,24.8-11.3,14.3-9.1,23.9-21.9,29.9-37.1,4.7-11.8,9.5-23.9,16.1-35.3,5.3-9.1,13.1-17.5,20.5-25.6,6.3-7,15.4-7.9,20.1-3.2,4.6,4.8,3.5,13.5-3.4,20.3-12.6,12.4-20.2,26.5-24.9,42.1,13.2-4.4,25.9-10,37.1-20.5,2.1-2,4.2-4.1,6.5-5.9,7.1-5.8,15.2-6.3,19.3-1.4,4.1,4.9,2.6,13.3-3.8,19.7h0Z"/>
</svg>