<?xml version="1.0" encoding="UTF-8"?>
<svg id="Calque_1" xmlns="http://www.w3.org/2000/svg" version="1.1" viewBox="0 0 566.9 595.3">
  <!-- Generator: Adobe Illustrator 30.0.0, SVG Export Plug-In . SVG Version: 2.1.1 Build 123)  -->
  <defs>
    <style>
      .st0 {
        fill: #fff;
        isolation: isolate;
      }
    </style>
  </defs>
  <path class="st0" d="M424.4,97.4v-53.9h-65.5v53.9h-9.9v-53.9h-65.5v53.9h-14.2v-53.9h-65.5v53.9h-9.9v-53.9h-65.5v53.9h-15.1v90.7h340.4v-90.7s-29.3,0-29.3,0ZM133.9,97.4v-48.4h54.6v48.5h-54.6ZM209.3,97.4v-48.4h54.6v48.5h-54.6,0ZM288.9,97.4v-48.4h54.6v48.5h-54.6ZM364.3,97.4v-48.4h54.6v48.5h-54.6Z"/>
  <polygon class="st0" points="379.8 233.1 218.6 403.9 244.7 428.6 405.9 257.8 379.8 233.1"/>
  <path class="st0" d="M113.3,551.8h340.3V196.8H113.3v355ZM379.6,228l31.4,29.7-166.1,176-31.4-29.7,166.1-176ZM211.9,405.8l31.4,29.6-56,59.4-31.4-29.7,56-59.3Z"/>
</svg>