<?xml version="1.0" encoding="UTF-8"?>
<svg id="Calque_1" xmlns="http://www.w3.org/2000/svg" version="1.1" viewBox="0 0 566.9 595.3">
  <!-- Generator: Adobe Illustrator 30.0.0, SVG Export Plug-In . SVG Version: 2.1.1 Build 123)  -->
  <defs>
    <style>
      .st0 {
        fill: #fff;
        isolation: isolate;
      }
    </style>
  </defs>
  <path class="st0" d="M127.8,267.5s-.2,0-.3.1h0c0-.1.2-.1.3-.1Z"/>
  <path class="st0" d="M250.5,225.2s-.1.1-.2.1c-17.8,9.6-29,20.7-33.2,33.2-4,11.8-.5,20.4.7,22.7,2.1,4.2,6.1,7.3,10.8,8.3,4.6,1,9.5-.2,13.2-3.3,8.5-7,26.5,2,32.1,5.5,6.4,5.4,12.1,7.1,16.7,7.1s7.2-1.3,9.4-2.5c11.9-6.6,12.3-22.1,11.4-34.8-.5-7.4-1.7-14.4-2.2-17.3-.6-13.7-8.1-20.3-12.6-23.1-16.2-9.8-39.4.6-46.1,4.1h0ZM263.6,253.7c.5-.2.9-.4,1.4-.7,4.2-2.1,9.6-3.9,13.2-4.5v.2c.6,3.3,1.1,6.9,1.5,10.4-4.9-2.2-10.4-4.1-16.1-5.4h0Z"/>
  <path class="st0" d="M205.2,158.1c2.6,0,5.1-.6,7.2-1.9,25.7-13.7,45.7-5.5,47.5-4.7,5.5,2.8,11.9,1.9,16.7-2,7.7-6.3,12.1-14.6,12.7-24,1.3-19.1-13.2-35.8-16.1-38.9-1-1.1-2.1-2-3.3-2.7-6.8-4.2-14.7-5.3-22.9-3.3-25.8,6.4-50.6,45.8-55.3,53.7-3.6,6.1-2.7,13.8,2.1,18.9,3.1,3.2,7.2,4.9,11.4,4.9h0ZM253.3,111.7c1.5,2.1,2.9,4.5,3.8,6.7-3.5-.6-7.5-1.1-11.8-1.2,3.7-3.3,6.4-4.8,8-5.5Z"/>
  <path class="st0" d="M449.9,332.5c-11.6-17.1-21.6-29.9-35.4-26.1-6.3,1.7-13.1,7.7-13.1,19.3v.7c.6,15.8-3.4,32.6-7.1,34.7-.8.4-1.6.9-2.3,1.5-7.2,5.9-14.4,17-11.3,29,4.6,17.7,26.3,21.6,33.5,22.9.9.1,1.9.2,2.8.2,6.5,0,39.4-1.1,50.9-21.8,4.3-7.8,7-20.8-4.2-38.6-1-1.7-7-11.8-13.8-21.8h0ZM418.3,383.4c-.6-.2-1.2-.3-1.7-.4,6.5-6.6,10.4-15.7,12.7-24.7,2.5,3.9,5,7.9,7.4,12,.1.2.2.4.3.5,2.6,4.1,3.1,6.3,3.2,7.1-2.3,2.4-12.3,5.2-21.9,5.5Z"/>
  <path class="st0" d="M557.9,258.6c-3.9-2.9-9-3.9-13.7-2.6-7.7,2.2-30.3,5-34.9-4.9-2-4.2-5.8-7.4-10.4-8.5-4.6-1.2-9.4-.2-13.2,2.6-.3.1-24.8,17.8-45.7,11-12.9-4.2-23-17.6-30-39.9-1.7-5.4-6.1-9.4-11.7-10.6-.2-.1-25.5-5.9-35.9-26-7.3-14.2-6-33,3.7-56,2.4-5.6,1.8-11.5-2.2-16-1.5-2-14.8-22.4,6.2-57.1,2.5-4.1,3-9.1,1.3-13.6-1.6-4.5-5.3-7.9-9.9-9.4-1.6-.5-39.4-12.3-81.3-12.3h-.4c-2.8,0-70,2.1-138,39.8-40.4,22.3-72.6,52.5-95.7,89.8C17.4,191.1,2.9,248,2.9,314.1v.5c0,2.7,2.7,67,38.7,132,21.3,38.7,50.1,69.5,85.4,91.7,43.9,27.6,97.7,41.6,160,41.6s.2,0,.3,0c2.8,0,69.5-2.1,137.2-35.1,63.7-31,139.6-95.9,139.6-228.8v-45c0-4.9-2.3-9.5-6.2-12.5h0ZM532.9,315.9c0,93.4-40.8,160.7-121.1,200.2-60.1,29.6-121.4,32.3-125,32.4-101.1,0-174.2-39.2-217.2-116.1-31.8-56.7-35.1-114.7-35.3-118.7,0-107.9,41-185.6,121.9-230.7,59.9-33.5,121.1-36.4,124.5-36.5,20.4,0,40,3.3,53.6,6.3-12.5,31.1-5.5,54.3.3,66-10.8,29-10.6,54.4.4,75.4,12.4,23.8,35.4,34.8,48.1,39.3,10.4,27.9,26.3,45.4,47.5,52.3,23.5,7.6,47-.7,61-7.9,8.5,7.1,20.2,11,34.4,11.3,2.4.1,4.7,0,6.9-.1v26.8Z"/>
  <path class="st0" d="M365.3,438.3c-.7,0-1.5.1-2.2.2-12.1,1.7-27,.6-30.3-2.3-8-10.6-20.3-13.9-31.4-8.4-14.1,6.9-21.2,25.8-16.3,43.1,1.5,5.7,9.6,32.1,30.1,38.6,2.6.8,5.7,1.4,9.2,1.4,6.8,0,15.2-2.3,24.1-9.8,1.9-1.5,3.3-3.4,4.3-5.6,2.6-5.9,6.2-12.4,8.8-16.5h.2c6.3,0,12.4-2.5,16.9-6,7.4-5.8,10.4-14.1,7.7-21.9-1.3-3.9-6-12.8-21.1-12.8h0ZM326,478.8c-.7.4-1.2.6-1.5.7-2.5-1.4-7-9.2-9.1-16.8,0-.1-.1-.2-.1-.3-.1-.1-.1-.2-.1-.3,4.3,3,9.7,5.2,16,6.6-1.7,2.9-3.4,6.3-5.2,10.1h0Z"/>
  <path class="st0" d="M228.8,433.7c-7.4-5.7-16.4-5.7-24.1-3.2-3.9-1.4-9.3-3.2-15-4.8-14.8-4.1-31.1-6.9-40.3,3.5-2.8,3.2-8.6,12-1.4,25.5,1.5,2.8,3.9,5.2,6.8,6.6.2.1,18.6,9.8,19.7,28.6.2,3.4,1.5,6.5,3.6,9.1,5,6.2,14.1,12.5,24.5,12.5s3.6-.2,5.4-.7c19.1-4.1,25.3-26.9,27.3-34.4,2.3-8.5,8.4-31.2-6.5-42.7ZM205,468.3c-.6,2.2-1.1,4.1-1.7,5.6-1.4-4.5-3.3-8.6-5.4-12.4.5.2,1,.4,1.4.4,2.3.9,4.6,1.3,6.9,1.2-.3,1.5-.7,3.2-1.2,5.2h0Z"/>
  <path class="st0" d="M305.5,401.5c2.7-9.5-3.2-15.8-8.9-21.9-6-6.4-17.2-18.4-17.2-28.8s-.6-4.7-1.6-6.8c-1.1-2.3-7.2-13.6-20.6-15.8-6.7-1.1-17,0-28.2,11.2-3.6,3.1-16.3,15.6-15.6,32.3.3,7.7,3.5,18.8,17.3,28.4,1.1,1,2.3,1.8,3.5,2.6,2.2,1.5,5.7,3.8,9.8,6.3,11.3,6.7,21.3,10.7,29.7,11.9,1.8.3,3.5.4,5.2.4,13,0,22.9-7.2,26.6-19.8h0ZM249.6,375.3c.6.4,1.1.9,1.6,1.5-.5-.5-1-1-1.6-1.5ZM249.5,375.2c-.3-.3-.6-.5-1-.7-3.2-2.2-3.9-3.7-3.9-3.9-.1-1.5,2.3-5.2,4.8-7.4,1.6,6.2,4.3,12,7.4,17.1-2.6-1.7-5.2-3.4-7.3-5.1h0Z"/>
  <path class="st0" d="M160.7,360.8c5.8-5.1,7.2-13.4,3-19.9-.8-1.4-9.6-17.4-4.9-39.5,1-3.9,2.9-13.9-3.5-22.9-3.6-5.1-10.9-11.2-25.1-11.2s-1.6.1-2.3.2h-.4c-2.5.4-4.9,1.4-6.9,3,2-1.5,4.3-2.6,6.9-3-15.6,2.1-42,8.5-48,27.3-2.4,7.5-2.4,19,10.8,31.7,2,2.6,8.1,9.9,15.5,17.4,14.4,14.5,26,21.6,36.5,22.6.8.1,1.6.1,2.4.1,6,.1,11.5-2,16-5.8h0ZM120.6,270.5c-.2.2-.4.3-.6.5.2-.1.4-.3.6-.5ZM126.1,320c-4.1-4.2-8.2-8.9-11.9-13.6-.5-.7-1-1.3-1.7-1.9-.3-.2-.5-.4-.7-.6,3.5-1.6,9.1-3.3,15.3-4.5-1.2,7.4-1.4,14.3-1,20.6Z"/>
</svg>