<?xml version="1.0" encoding="UTF-8"?>
<svg id="Calque_1" xmlns="http://www.w3.org/2000/svg" version="1.1" viewBox="0 0 566.9 595.3">
  <!-- Generator: Adobe Illustrator 30.0.0, SVG Export Plug-In . SVG Version: 2.1.1 Build 123)  -->
  <defs>
    <style>
      .st0 {
        fill: #fff;
        isolation: isolate;
      }
    </style>
  </defs>
  <path class="st0" d="M241.1,167.3c-31.4-15.8-51.2-20.6-92.6,20.8-41.4,41.4-36.6,61.2-20.8,92.6,32.9,65.5,321.8,312.1,373.6,260.3,51.9-51.9-194.8-340.7-260.2-373.7h0Z"/>
  <path class="st0" d="M81,184.2c14.2-1.1,27.4,4.1,32.7,4,5.4-7.4,10.4-12.3,16.5-18.5,6.2-6.2,11.1-11.1,18.5-16.5.2-5.3-5.1-18.5-4-32.7s6.9-20.9,5.6-26.6c-1.3-5.7-5.1-12.8-14.3-12.8s-13.6,7.5-14.4,12.8c-.7,5.3-3.1,22.7-3.3,26.3-.2,3.7.6,5.1-1.9,7-2.5,1.9-6.9,2.4-8.1,1.1-1.3-1.3-37.9-38.6-37.9-38.6,0,0-9.1-7.5-18.5,1.9s-1.7,18.3-1.7,18.3c0,0,37.3,36.7,38.6,37.9,1.3,1.3.8,5.6-1.1,8.1s-3.3,1.8-7,1.9-21,2.5-26.3,3.3-12.8,5.2-12.8,14.4,7.1,13.1,12.8,14.3c5.7,1.3,12.4-4.5,26.6-5.6h0Z"/>
  <path class="st0" d="M163.9,91c1.5,6.6-.5,12.3-2.2,17.3-1.3,3.9-2.7,7.9-3.1,13.5-.4,5,.3,10.2,1.2,14.9,6.4,3.5,12.7,7.3,18.7,11.3,8.9-4.1,17.4-6,26.1-6,15.6,0,29.7,6.4,42.7,13,35,17.6,104.3,91.1,153.7,151.8,31.1,38.2,58.3,75.7,78.6,108.4,2.9,4.7,5.6,9.2,8.2,13.7,8.3-26.7,13.2-54.1,13.9-79.5,1.4-46.3-9.4-85.4-32.4-116.5h0c-15.2-20.5-35.2-36.9-58.1-47.8-1.5-.7-2.9-1.3-4.3-2,6-3.9,11.7-7.8,16.8-11.7,53.7-40.8,41.4-124.7,39.8-134.2-2.1-11.6-12.1-20.1-24-20.1s-2.2,0-3.9.3c-39.1,6.1-72.2,19.4-98.6,39.6-21.6,16.4-39.1,37.9-50.5,62.3-2.6,5.5-5,11.1-7.1,16.9-6.4-10.1-13.4-19.8-21-29-17.5-21.6-38.8-42.7-63.3-62.5h-.1c-4.3-3.5-9.7-5.4-15.2-5.4s-12.8,2.6-17.5,7.5c-6.5,6.9-12.5,14.3-17.8,22,9.8,2.8,16.8,10.8,19.4,22.2h0Z"/>
  <path class="st0" d="M275.5,447.6c-36.4-29.2-72.5-61.2-101.6-90.1-21.2-21.1-48.6-50.5-58.7-70.4-7.7-15.4-15.1-32-12.4-50.8,1.6-11,6.4-22,15-34.1h-3.2c-10.3,8-20.4,17.8-29.4,29.5-21.4,28.2-43.9,77.7-29.3,152.9,14.3,74.1,43.6,120,65.5,145.4,24.7,28.8,54.8,47.8,76.7,48.3h4.7c26,0,40.9-6.1,62.4-16.2,3.5-1.7,7.3-2.5,11.1-2.5s7,.7,10.1,1.9c29.5,15.7,54.4,16.9,61.3,16.9h2c20.8,0,41.4-8.3,61.5-24.5,3.4-2.8,6.7-5.8,10-9-10.3-5.1-21.5-11.1-33.6-18.3-33.1-19.5-71.9-46.9-112.1-79.1h0Z"/>
</svg>